<?xml version="1.0" encoding="utf-8"?>
<!-- Generator: Adobe Illustrator 25.0.1, SVG Export Plug-In . SVG Version: 6.00 Build 0)  -->
<svg version="1.1" id="Layer_1" xmlns="http://www.w3.org/2000/svg" xmlns:xlink="http://www.w3.org/1999/xlink" x="0px" y="0px"
	 viewBox="0 0 140 50" style="enable-background:new 0 0 140 50;" xml:space="preserve">
<style type="text/css">
	.st0{fill:#77FF00;}
	.st1{fill:#FFFFFF;}
</style>
<g id="Group_106_9_">
	<path id="Path_364_9_" class="st0" d="M111,14.49c-4.57,0-8.28,3.62-8.28,8.09c0,4.47,3.71,8.09,8.28,8.09
		c1.88,0,3.71-0.63,5.18-1.78c0.78-0.61,0.91-1.73,0.28-2.49c-0.63-0.76-1.77-0.89-2.55-0.27c-0.82,0.65-1.85,1-2.9,1
		c-1.87,0-3.55-1.09-4.28-2.77h10.74c1,0,1.81-0.79,1.81-1.77C119.27,18.11,115.57,14.49,111,14.49 M106.72,20.81
		c1-2.31,3.73-3.39,6.09-2.41c1.11,0.46,2,1.33,2.47,2.41H106.72z"/>
	<path id="Path_365_9_" class="st0" d="M56.08,14.49c-4.57,0.01-8.27,3.63-8.28,8.09c0,0.05,0.01,0.1,0.01,0.16
		c0,0.03-0.01,0.05-0.01,0.08v10.79c0,0.98,0.81,1.77,1.81,1.77c1,0,1.81-0.79,1.81-1.77v-4.34c3.78,2.51,8.93,1.55,11.5-2.15
		c2.57-3.7,1.59-8.73-2.19-11.24C59.37,14.97,57.74,14.49,56.08,14.49 M56.08,27.13c-2.57,0-4.65-2.04-4.65-4.55
		s2.08-4.55,4.65-4.55c2.57,0,4.65,2.04,4.65,4.55C60.73,25.09,58.65,27.12,56.08,27.13"/>
	<path id="Path_366_9_" class="st0" d="M92.69,14.49c-4.57,0.01-8.27,3.63-8.28,8.09c0,0.05,0.01,0.1,0.01,0.16
		c0,0.03-0.01,0.05-0.01,0.08v10.79c0,0.98,0.81,1.77,1.81,1.77s1.81-0.79,1.81-1.77v-4.34c3.78,2.51,8.93,1.55,11.5-2.15
		s1.59-8.73-2.2-11.24C95.97,14.97,94.35,14.49,92.69,14.49 M92.69,27.13c-2.57,0-4.65-2.04-4.65-4.55s2.08-4.55,4.65-4.55
		c2.57,0,4.65,2.04,4.65,4.55C97.34,25.09,95.26,27.12,92.69,27.13"/>
	<path id="Path_367_9_" class="st0" d="M80.85,14.94c-1,0-1.81,0.79-1.81,1.77v4c0,2.51-2.08,4.55-4.65,4.55s-4.65-2.04-4.65-4.55
		v-4c0-0.98-0.81-1.77-1.81-1.77s-1.81,0.79-1.81,1.77v4c0.01,3.78,2.69,7.06,6.46,7.89v5c0,0.98,0.81,1.77,1.81,1.77
		s1.81-0.79,1.81-1.77v-5c3.77-0.83,6.46-4.11,6.46-7.89v-4C82.67,15.74,81.85,14.94,80.85,14.94"/>
	<path id="Path_368_19_" class="st1" d="M23.29,20.81c-1,0-1.81,0.79-1.81,1.77c0,0.98,0.81,1.77,1.81,1.77h4.06
		c-0.22-1.17-0.22-2.38,0-3.55H23.29z"/>
	<path id="Path_369_19_" class="st1" d="M37.27,14.49c-4.57,0-8.28,3.62-8.28,8.09c0,4.47,3.71,8.09,8.28,8.09
		c1.88,0,3.71-0.63,5.18-1.78c0.78-0.61,0.91-1.73,0.28-2.49c-0.63-0.76-1.77-0.89-2.55-0.27l0,0c-0.82,0.65-1.85,1-2.91,1
		c-2.57,0-4.65-2.03-4.65-4.55c0-2.51,2.08-4.55,4.65-4.55c1.87,0,3.55,1.09,4.28,2.77h-6.44c-0.89,1.02-0.89,2.53,0,3.55h8.63
		c1,0,1.81-0.79,1.81-1.77C45.55,18.11,41.84,14.49,37.27,14.49"/>
</g>
</svg>
